<?xml version="1.0" encoding="UTF-8"?>
<svg version="1.1" xmlns="http://www.w3.org/2000/svg" width="2000" height="1592">
<path d="M0 0 C1.28381325 -0.0030531 2.5676265 -0.00610619 3.89034319 -0.00925181 C7.4644356 -0.01746326 11.03842186 -0.01320473 14.61251425 -0.00696007 C18.51133729 -0.00235698 22.41014238 -0.00936824 26.30896184 -0.01489371 C33.17202159 -0.02300798 40.03505105 -0.02364997 46.89811387 -0.01948182 C57.17245819 -0.01327609 67.44677464 -0.01855097 77.72111693 -0.02607924 C95.23009841 -0.03856404 112.73907001 -0.04148891 130.24805528 -0.03924429 C147.99777177 -0.03699746 165.74747986 -0.03905634 183.49719507 -0.04638922 C185.17729458 -0.04707818 185.17729458 -0.04707818 186.8913355 -0.04778106 C191.45301627 -0.04966428 196.01469702 -0.05157565 200.57637777 -0.05352344 C248.19616243 -0.07382686 295.8159424 -0.07993595 343.4357309 -0.08110766 C348.56360705 -0.08123715 353.69148321 -0.08137303 358.81935936 -0.08151448 C360.72803091 -0.08156549 360.72803091 -0.08156549 362.67526148 -0.08161754 C390.85555513 -0.08243398 419.03584787 -0.08681228 447.21614104 -0.09182617 C458.81484595 -0.09388284 470.41355087 -0.09586288 482.01225579 -0.09785867 C483.29376072 -0.09807985 484.57526565 -0.09830102 485.89560406 -0.09852891 C558.65971156 -0.11106134 631.42381818 -0.11944977 704.18792671 -0.1185373 C706.24920386 -0.11851179 708.310481 -0.11848786 710.37175815 -0.11846448 C724.8532458 -0.11829979 739.33473344 -0.11809437 753.81622109 -0.11787872 C757.96842201 -0.11781718 762.12062293 -0.11775705 766.27282385 -0.11769709 C769.73630265 -0.1176469 773.19978146 -0.11759532 776.66326026 -0.11754086 C842.08090147 -0.116518 907.49853775 -0.11935395 972.91617662 -0.13823569 C973.94926131 -0.13853376 973.94926131 -0.13853376 975.0032164 -0.13883786 C996.52215654 -0.14506055 1018.04109652 -0.15179354 1039.56003648 -0.15862143 C1061.63998835 -0.16562423 1083.71994024 -0.17256514 1105.79989225 -0.17915022 C1106.47974067 -0.17935328 1107.15958909 -0.17955633 1107.86003898 -0.17976553 C1150.43475785 -0.19246315 1193.00947521 -0.20029879 1235.58419591 -0.2028662 C1236.89896971 -0.2029461 1238.2137435 -0.203026 1239.56835893 -0.20310832 C1268.42830605 -0.20481473 1297.2882531 -0.20533731 1326.14820026 -0.20476757 C1336.47436446 -0.20457459 1346.80052867 -0.20447051 1357.12669287 -0.20441011 C1359.69566119 -0.20439428 1362.2646295 -0.20437387 1364.83359782 -0.20434886 C1405.79765134 -0.20399596 1446.76169105 -0.21540258 1487.72574061 -0.2326565 C1528.97537471 -0.24994241 1570.22498967 -0.25435088 1611.47462588 -0.24113385 C1617.17108959 -0.23930918 1622.86755334 -0.23762264 1628.56401712 -0.23601782 C1630.23905513 -0.23553756 1630.23905513 -0.23553756 1631.9479323 -0.2350476 C1649.6499312 -0.23033638 1667.35189704 -0.23906874 1685.05388972 -0.2533602 C1702.44851977 -0.26712347 1719.84310086 -0.26667507 1737.2377298 -0.25097592 C1747.44311348 -0.24219333 1757.64835322 -0.2444033 1767.85372507 -0.26270949 C1774.62698209 -0.27377034 1781.40013141 -0.27038804 1788.17338009 -0.25514393 C1792.01589817 -0.24690317 1795.85813246 -0.2448882 1799.70063347 -0.26064531 C1803.83113905 -0.27744504 1807.96096775 -0.26324968 1812.09147167 -0.24609566 C1813.27224573 -0.2558949 1814.45301979 -0.26569413 1815.66957487 -0.27579032 C1829.73961859 -0.15374052 1841.86049681 4.97797453 1852.17160875 14.56549966 C1861.3456269 24.441835 1866.50731603 37.78466273 1866.35910875 51.25299966 C1865.85187994 58.49006774 1864.43392037 64.24357897 1861.23410875 70.75299966 C1859.65473835 74.64568316 1859.00747822 76.31612107 1860.49973375 80.29206216 C1861.89728351 82.46541712 1863.31197466 84.54319875 1864.82785875 86.62799966 C1882.52355321 110.98688772 1887.51969695 144.89877968 1887.49955064 174.1701597 C1887.50214021 175.54848244 1887.505155 176.92680443 1887.50855404 178.30512542 C1887.5165583 182.06487046 1887.51840991 185.82459636 1887.51915151 189.58434892 C1887.5210137 193.65077908 1887.52856693 197.71719956 1887.53528672 201.78362405 C1887.54882523 210.66446483 1887.55488817 219.54530107 1887.55929738 228.42615044 C1887.56206824 233.98252762 1887.56630718 239.53890308 1887.57080156 245.0952791 C1887.58298994 260.51012917 1887.59328908 275.92497788 1887.59667665 291.33983266 C1887.59689621 292.32502622 1887.59711578 293.31021978 1887.597342 294.32526769 C1887.59756028 295.31269009 1887.59777855 296.30011249 1887.59800345 297.31745678 C1887.5984469 299.31802511 1887.59889346 301.31859344 1887.59934312 303.31916177 C1887.59956455 304.31149237 1887.59978598 305.30382297 1887.60001412 306.32622419 C1887.60395585 322.37865058 1887.62139269 338.43103142 1887.64470264 354.48344024 C1887.6684976 371.00468747 1887.68088224 387.52591192 1887.68204457 404.04717654 C1887.68295693 413.306765 1887.68859752 422.56629412 1887.70686418 431.8258661 C1887.72237577 439.71615304 1887.72732133 447.60636231 1887.71912608 455.49666163 C1887.71525784 459.5118232 1887.71595791 463.52682891 1887.73018342 467.54197061 C1887.85372705 504.65219487 1884.22105141 544.14013561 1862.08567125 575.54987466 C1860.01608215 578.11140127 1860.01608215 578.11140127 1860.85910875 580.94049966 C1861.35410875 582.03362466 1861.84910875 583.12674966 1862.35910875 584.25299966 C1867.6531064 596.73612254 1869.41773295 610.20893784 1864.63596421 623.2207731 C1859.35970999 636.0829794 1851.98530464 645.23579023 1839.54660875 651.75299966 C1838.93172593 652.07977701 1838.31684312 652.40655435 1837.6833275 652.74323404 C1827.61918185 657.57938599 1816.00944275 657.54849344 1805.06394559 657.50369799 C1803.78231004 657.50650263 1802.50067448 657.50930726 1801.18020148 657.51219688 C1797.64023533 657.51965991 1794.10038019 657.51479301 1790.56041708 657.50781698 C1786.68825978 657.50242339 1782.81611774 657.50872572 1778.94396204 657.51349068 C1772.13724786 657.52026574 1765.33056572 657.5196223 1758.52385086 657.51412359 C1748.33394015 657.50592901 1738.14405538 657.5092932 1727.95414407 657.51488887 C1710.58664029 657.52408697 1693.21914822 657.52378978 1675.85164338 657.51832712 C1658.25118982 657.5128249 1640.65074396 657.5116637 1623.05028993 657.51580179 C1621.38289166 657.51618931 1621.38289166 657.51618931 1619.68180858 657.51658465 C1615.15445184 657.51765119 1610.62709512 657.51874861 1606.0997384 657.5198852 C1563.92802517 657.530465 1521.75631711 657.53118078 1479.58460313 657.5255903 C1478.3348761 657.52542471 1477.08514908 657.52525912 1475.79755153 657.52508851 C1474.54582824 657.52492265 1473.29410495 657.52475679 1472.00445065 657.52458591 C1433.88694144 657.51954177 1395.76943438 657.51823572 1357.65192491 657.52063119 C1355.10049431 657.52078615 1352.54906372 657.52094047 1349.99763312 657.52109413 C1339.74477445 657.52171506 1329.49191578 657.52235239 1319.23905711 657.52301366 C1290.57716496 657.52484778 1261.9152728 657.52598891 1233.2533806 657.52658594 C1231.94813052 657.52661323 1230.64288044 657.52664052 1229.29807733 657.52666864 C1187.70030246 657.52748733 1146.1025285 657.52523459 1104.50475389 657.52088678 C1103.49285434 657.52078142 1103.49285434 657.52078142 1102.46051237 657.52067394 C1079.86473224 657.51832124 1057.26895213 657.51580911 1034.67317202 657.51328068 C966.34292421 657.50563984 898.01267915 657.50145255 775.98368228 657.51351134 C753.3936094 657.51603776 730.80353651 657.5185348 708.2134636 657.52088678 C707.20184887 657.52099251 707.20184887 657.52099251 706.16979748 657.52110038 C663.93481048 657.52551102 621.69982417 657.52746903 579.4648369 657.52658594 C578.16054242 657.52655877 576.85624795 657.5265316 575.5124294 657.52650361 C546.88250743 657.52587868 518.25258551 657.52461146 489.62266359 657.52276493 C479.37891037 657.52210663 469.13515715 657.52148047 458.89140394 657.52086351 C456.34296956 657.52070873 453.79453519 657.52055127 451.24610082 657.52039112 C413.13762163 657.51800283 375.02914485 657.52003896 336.92066596 657.52508851 C335.67093893 657.5252541 334.42121191 657.52541969 333.13361436 657.5255903 C331.88618757 657.52575567 330.63876077 657.52592103 329.35353317 657.52609141 C287.30477171 657.53160463 245.25601647 657.52958519 203.2072559 657.51902881 C198.69414646 657.51792408 194.18103702 657.51685067 189.66792756 657.51580179 C188.00651031 657.51541117 188.00651031 657.51541117 186.31152908 657.51501266 C168.75666416 657.51106425 151.20180694 657.51381821 133.64694272 657.5193398 C116.39523965 657.52462382 99.14354962 657.52278519 81.89184821 657.51331162 C71.77169188 657.50796655 61.65157122 657.50809939 51.53141658 657.51627482 C44.81338259 657.52115632 38.09537641 657.51880812 31.37734579 657.51054111 C27.56712967 657.50605523 23.75698467 657.50466555 19.9467717 657.51217414 C15.8492139 657.5201793 11.75182766 657.51266477 7.6542719 657.50369799 C6.48594508 657.50847948 5.31761826 657.51326096 4.11388759 657.51818734 C-6.54075835 657.47068223 -17.27480404 656.83022054 -26.82839125 651.75299966 C-27.83772719 651.22416177 -27.83772719 651.22416177 -28.86745375 650.68464029 C-40.93804198 644.04697517 -47.96408644 633.97921398 -52.64089125 621.25299966 C-56.17394558 608.68156941 -54.85728638 596.9305103 -49.79714125 585.03034341 C-48.82298097 582.69038408 -48.02873272 580.74349167 -47.64089125 578.25299966 C-49.00975183 575.67809452 -50.43189259 573.31452813 -52.01589125 570.87799966 C-72.07356545 538.34070574 -75.13177307 502.6616821 -75.01840621 465.32484305 C-75.00941792 461.25534372 -75.01804892 457.18587178 -75.02426833 453.11637247 C-75.03367319 445.18066563 -75.02723111 437.24505083 -75.01500539 429.30935092 C-75.00126952 420.04266576 -75.00303325 410.77600162 -75.00513872 401.50930886 C-75.00831619 384.96503213 -74.99673064 368.42079871 -74.97707289 351.87653482 C-74.95805557 335.8667558 -74.95099176 319.85702745 -74.95656508 303.84723794 C-74.96263716 286.35334312 -74.96242111 268.85947046 -74.95107925 251.36557746 C-74.94987212 249.49685824 -74.94866614 247.62813902 -74.94746131 245.7594198 C-74.94685777 244.84029127 -74.94625423 243.92116274 -74.9456324 242.97418184 C-74.94177151 236.53225348 -74.94213967 230.09033343 -74.94404715 223.64840448 C-74.94617977 215.79047012 -74.94086435 207.93257986 -74.9264336 200.07465787 C-74.91924299 196.07436526 -74.91506645 192.07413652 -74.91967696 188.07383859 C-74.95842961 149.76125112 -74.95842961 149.76125112 -70.45339125 131.81549966 C-70.129756 130.50839029 -70.129756 130.50839029 -69.79958266 129.17487466 C-65.25713678 111.50376923 -58.30303357 93.44543855 -47.6760475 78.48737466 C-46.34106029 76.24160033 -46.34106029 76.24160033 -47.37136 73.66706216 C-47.85218032 72.74667154 -48.33300063 71.82628091 -48.82839125 70.87799966 C-54.46182364 58.53593677 -54.72629948 45.92778746 -50.63307875 33.09284341 C-45.29557444 19.11282384 -35.94345646 10.01868597 -22.668235 3.51471841 C-14.9197097 0.28533303 -8.3536305 -0.03183378 0 0 Z M67.23410875 107.94049966 C66.22755235 108.46377847 66.22755235 108.46377847 65.20066148 108.99762857 C47.689989 118.32799527 35.0044972 132.15412214 28.92160875 151.19049966 C26.38654639 160.00069395 26.21232531 168.32972383 26.21866685 177.44599283 C26.21608042 178.7942792 26.21306648 180.14256481 26.20966345 181.49084938 C26.20162269 185.18579481 26.19980551 188.88072079 26.19906598 192.57567394 C26.19721028 196.56497373 26.18966029 200.55426354 26.18293077 204.54355752 C26.16936704 213.26287897 26.1633256 221.98219581 26.15892011 230.70152605 C26.156154 236.15060527 26.15191593 241.59968274 26.14741594 247.04876077 C26.13522512 262.14864113 26.1249259 277.24852007 26.12154084 292.34840524 C26.12132128 293.31426245 26.12110171 294.28011967 26.12087549 295.27524528 C26.12065721 296.24335963 26.12043894 297.21147398 26.12021405 298.20892513 C26.11977059 300.17055674 26.11932402 302.13218836 26.11887437 304.09381998 C26.11865294 305.06684845 26.11843151 306.03987693 26.11820337 307.04239112 C26.11425815 322.79722552 26.09681171 338.55201359 26.07351485 354.30683011 C26.04976535 370.49907368 26.03733733 386.69129403 26.03617293 402.88355529 C26.03525811 411.96797686 26.02955484 421.05233807 26.01135331 430.13674295 C25.9959036 437.87477177 25.99086042 445.61272158 25.99909142 453.3507629 C26.00298093 457.29389823 26.00215216 461.2368747 25.98803407 465.17999017 C25.97519217 468.80001517 25.97658148 472.41976361 25.98862478 476.03978878 C25.99147272 477.94808144 25.9797244 479.85637936 25.96720272 481.76463306 C26.03242843 493.32641205 27.44207821 505.27019059 33.04660875 515.56549966 C33.39546129 516.23009195 33.74431382 516.89468423 34.10373765 517.57941568 C43.84062635 535.57320349 59.18313587 546.88512942 78.35910875 553.25299966 C88.04060409 556.02344312 97.83522489 556.40130125 107.84827328 556.3794995 C109.55037699 556.38178932 109.55037699 556.38178932 111.28686663 556.3841254 C115.10044859 556.38803133 118.91399105 556.38480685 122.72757322 556.38163412 C125.49662014 556.38242526 128.26566536 556.38472299 131.03471145 556.38694635 C137.07993382 556.39099724 143.1251476 556.39132726 149.17037084 556.38924041 C158.22038059 556.38613342 167.27038244 556.38877815 176.32039162 556.39253911 C191.74416496 556.39877694 207.1679355 556.40024462 222.59170991 556.39912164 C238.22491052 556.39799774 253.85810874 556.39902934 269.49130899 556.40269411 C270.47826465 556.40292376 271.46522032 556.40315341 272.48208373 556.40339002 C276.50172827 556.40433165 280.52137282 556.40528734 284.54101735 556.40626122 C326.48960275 556.41640965 368.43818682 556.41946735 410.38677331 556.42005333 C414.90309619 556.42011807 419.41941908 556.42018601 423.93574196 556.42025673 C425.05645292 556.42027374 426.17716387 556.42029074 427.33183576 556.42030826 C452.15791313 556.42071658 476.98399023 556.42290605 501.81006746 556.42541258 C512.03001426 556.42644092 522.24996107 556.42743095 532.46990788 556.42842883 C533.59909667 556.42853942 534.72828545 556.42865001 535.89169208 556.42876395 C600.60720618 556.43508878 665.32272011 556.43921298 730.03823453 556.43875539 C732.46054405 556.43873961 734.88285356 556.43872388 737.30516307 556.43870818 C748.24189816 556.4386348 759.17863325 556.43854663 770.11536833 556.4384543 C774.99242235 556.43841318 779.86947636 556.43837303 784.74653037 556.43833299 C787.18758478 556.43831259 789.62863919 556.43829157 792.0696936 556.43826993 C869.26602079 556.43758961 946.46234339 556.44490784 1023.65866929 556.45881021 C1043.10920124 556.46231116 1062.55973319 556.46578059 1082.01026517 556.46907461 C1083.20787363 556.46927748 1084.40548209 556.46948035 1085.63938171 556.46968938 C1122.54390409 556.47590323 1159.44842609 556.47966971 1196.35294896 556.48093259 C1197.51140791 556.48097254 1198.66986686 556.48101249 1199.86343063 556.48105366 C1225.29299117 556.48190689 1250.72255169 556.48216814 1276.15211224 556.48188328 C1285.25101309 556.48178679 1294.34991393 556.48173475 1303.44881478 556.48170455 C1305.71243365 556.48169664 1307.97605253 556.48168643 1310.2396714 556.48167393 C1346.32421668 556.48149753 1382.40875803 556.48719872 1418.49330218 556.49582774 C1454.8321985 556.50447342 1491.17108938 556.50667258 1527.50998629 556.50006642 C1532.52995858 556.49915411 1537.54993088 556.49831083 1542.56990319 556.49750841 C1543.55396585 556.49734832 1544.53802851 556.49718823 1545.55191126 556.49702329 C1561.14178286 556.49466909 1576.73164507 556.49903062 1592.3215149 556.50617959 C1607.64636551 556.5130668 1622.97120222 556.51283053 1638.29605252 556.50498746 C1647.28323017 556.5006015 1656.27036695 556.50168854 1665.25754123 556.51085424 C1671.22662281 556.51639544 1677.19567389 556.51467961 1683.16475312 556.50707146 C1686.54821794 556.50296162 1689.93153683 556.50303263 1693.31500699 556.50982215 C1721.64942648 556.56288085 1746.32900344 554.22449148 1767.56614 533.29987466 C1781.99092536 518.16599878 1786.68222904 498.9650691 1786.61980516 478.57225931 C1786.62283183 477.21980674 1786.62672388 475.86735589 1786.63139772 474.51490802 C1786.64162009 470.82704329 1786.63951073 467.1392764 1786.63521713 463.45140386 C1786.63273935 459.46286993 1786.64177709 455.47435893 1786.64925462 451.48583353 C1786.66197469 443.68272893 1786.66379866 435.87965878 1786.66145436 428.07654556 C1786.65966796 421.7306235 1786.66142772 415.38471187 1786.6656788 409.03879106 C1786.66627399 408.13400508 1786.66686918 407.22921911 1786.6674824 406.29701537 C1786.66869421 404.45865648 1786.66990835 402.6202976 1786.67112478 400.78193871 C1786.68199003 383.55894578 1786.67984268 366.33597246 1786.67373993 349.11297844 C1786.66857213 333.37711903 1786.67982444 317.64132155 1786.69883815 301.90547439 C1786.71823772 285.72553514 1786.72646881 269.54562515 1786.7227149 253.3656742 C1786.72080601 244.29085048 1786.72325986 235.21607947 1786.73742944 226.14126527 C1786.74937127 218.4153763 1786.75071683 210.68957246 1786.73863927 202.96368226 C1786.7327701 199.02672304 1786.73159642 195.08991933 1786.74364167 191.15297067 C1786.75456685 187.53993562 1786.75131938 183.92718466 1786.73737999 180.31416253 C1786.73351813 178.4073147 1786.74422572 176.50045393 1786.75567687 174.59363657 C1786.6487411 157.32665499 1782.07772892 141.87036617 1771.35910875 128.25299966 C1770.48319078 127.11217935 1770.48319078 127.11217935 1769.5895775 125.94831216 C1758.22918141 112.12450388 1741.65213801 104.44354397 1724.35910875 101.25299966 C1720.32039246 100.88050616 1716.32328059 100.84911259 1712.26940709 100.87695217 C1711.11832387 100.87274522 1709.96724065 100.86853827 1708.78127613 100.86420383 C1704.9359881 100.85379019 1701.09106422 100.86466089 1697.24578172 100.87547624 C1694.44447765 100.87401306 1691.64318718 100.8680245 1688.84188908 100.86226314 C1682.73835246 100.85210785 1676.63489627 100.8530605 1670.53135794 100.86131378 C1661.39414348 100.87361334 1652.25699401 100.86855605 1643.11977804 100.86016585 C1627.54591672 100.84637344 1611.9720848 100.84681217 1596.39822084 100.85500848 C1580.61672826 100.86326347 1564.83525504 100.86500229 1549.0537613 100.85879648 C1548.05683134 100.85840896 1547.05990137 100.85802144 1546.0327614 100.85762218 C1541.97239364 100.85602236 1537.91202591 100.85437624 1533.85165819 100.85267135 C1496.03491397 100.83680389 1458.21818273 100.83572701 1420.40143663 100.84411371 C1419.28089627 100.84436209 1418.1603559 100.84461048 1417.00585977 100.84486639 C1415.88352815 100.84511518 1414.76119653 100.84536397 1413.60485485 100.8456203 C1379.42394907 100.85318729 1345.24304864 100.85514521 1311.06214219 100.85155237 C1308.77397745 100.85131993 1306.48581271 100.85108846 1304.19764797 100.85085796 C1295.00265539 100.84992657 1285.80766281 100.84897057 1276.61267023 100.84797867 C1250.90824114 100.84522753 1225.20381202 100.84351581 1199.49938279 100.84262025 C1198.32882624 100.84257932 1197.15826968 100.84253838 1195.95224171 100.8424962 C1158.64856779 100.84126822 1121.34489573 100.84464982 1084.04122239 100.85116899 C1082.226133 100.85148511 1082.226133 100.85148511 1080.37437512 100.85180762 C1060.72331013 100.85524254 1041.07224517 100.85890089 1021.42118021 100.86257814 C943.48088819 100.87714735 865.54061164 100.87647113 787.60031968 100.86188638 C767.9592115 100.85822286 748.31810332 100.85458973 728.6769951 100.85116899 C727.46765007 100.85095765 726.25830505 100.8507463 725.01231321 100.85052855 C687.74782012 100.84406082 650.48332833 100.84131702 613.2188347 100.84262025 C612.04913575 100.84266101 610.87943681 100.84270176 609.67429244 100.84274375 C583.99850732 100.84368115 558.32272233 100.845582 532.64693735 100.84835176 C523.46012379 100.8493392 514.27331023 100.85027844 505.08649667 100.8512039 C502.801019 100.85143606 500.51554133 100.85167225 498.23006366 100.85191248 C464.05749275 100.85549453 429.88492788 100.85244147 395.71235772 100.84486639 C394.59181736 100.84461801 393.471277 100.84436962 392.31678087 100.84411371 C391.19830407 100.84386566 390.07982728 100.84361761 388.92745725 100.84336205 C351.22069112 100.83509119 313.51394055 100.83812348 275.80717665 100.85395594 C271.75960318 100.85561303 267.71202969 100.85722314 263.66445619 100.85879648 C262.17442309 100.85938241 262.17442309 100.85938241 260.65428832 100.85998018 C244.91408199 100.86590141 229.17389499 100.86177331 213.4336904 100.85348946 C197.96308922 100.84556093 182.49252071 100.84832592 167.02192369 100.86253172 C157.94808901 100.87054558 148.87434383 100.87035666 139.8005134 100.85808693 C133.77535388 100.85075912 127.7502641 100.85429572 121.72511302 100.86668749 C118.30889871 100.87340983 114.89300838 100.87384653 111.47677939 100.86423794 C107.80062151 100.85462966 104.12494606 100.86351672 100.4488104 100.87695217 C99.40442319 100.86977994 98.36003599 100.86260772 97.28400068 100.85521815 C86.75618421 100.93348039 76.56632495 102.96741886 67.23410875 107.94049966 Z " fill="#000000" transform="translate(93.64089125394821,900.747000336647)"/>
<path d="M0 0 C1.16239924 -0.00247617 1.16239924 -0.00247617 2.34828129 -0.00500236 C4.96560066 -0.00934344 7.5828642 -0.006521 10.20018506 -0.00377727 C12.09545153 -0.00542614 13.99071767 -0.00751206 15.88598323 -0.00999737 C21.12967112 -0.01558365 26.37334275 -0.01488803 31.61703267 -0.01321978 C37.30834858 -0.01249093 42.99965982 -0.0175063 48.69097376 -0.0217948 C59.99490471 -0.0293892 71.29883094 -0.03156859 82.60276418 -0.03212385 C92.00409253 -0.03275756 101.40541761 -0.03572172 110.80674481 -0.04033732 C111.8212627 -0.04083252 111.8212627 -0.04083252 112.8562759 -0.04133773 C115.61081484 -0.04268769 118.36535378 -0.04405036 121.11989271 -0.04542983 C153.74893527 -0.06174151 186.37797712 -0.06811949 219.00702307 -0.0728777 C235.25036255 -0.07525985 251.49370161 -0.0789631 267.73704077 -0.0829148 C319.8242452 -0.09557969 371.9114496 -0.10636386 423.99865554 -0.10975526 C426.48867537 -0.1099175 428.9786952 -0.11008306 431.46871502 -0.11024964 C436.46259646 -0.11058345 441.4564779 -0.11091393 446.45035934 -0.1112442 C452.2971418 -0.1116311 458.14392425 -0.11202071 463.9907067 -0.11241527 C465.66411138 -0.11252769 467.33751605 -0.1126391 469.01092073 -0.11274952 C522.76628915 -0.11629971 576.5216442 -0.13138101 630.27700752 -0.15468726 C668.89826295 -0.17142516 707.51951586 -0.18690235 746.14077497 -0.19142222 C746.93476456 -0.19151571 747.72875416 -0.1916092 748.54680404 -0.19170551 C765.97549427 -0.19372441 783.40418447 -0.19488058 800.83287481 -0.1952341 C807.06896086 -0.19537028 813.3050469 -0.19557927 819.54113294 -0.19582735 C821.09255925 -0.19588891 822.64398555 -0.19594723 824.19541186 -0.1960023 C848.93211875 -0.19692269 873.66881172 -0.20689775 898.40551403 -0.22145979 C923.31583186 -0.23606538 948.22613259 -0.24112406 973.13645396 -0.23304025 C976.57689217 -0.23192483 980.01733041 -0.23091418 983.45776868 -0.22996593 C984.13220362 -0.22977596 984.80663856 -0.22958599 985.50151093 -0.22939027 C996.84097744 -0.22648765 1008.18040268 -0.23548358 1019.51986327 -0.24760534 C1029.37438973 -0.25731757 1039.22887594 -0.25621321 1049.08340198 -0.24616911 C1054.70525861 -0.24074987 1060.32700513 -0.24015393 1065.94885287 -0.25267783 C1071.05936133 -0.2639681 1076.16966949 -0.26154619 1081.28017083 -0.24801075 C1083.12115428 -0.24556753 1084.96215291 -0.24819305 1086.80311966 -0.25640723 C1089.29856472 -0.26681296 1091.79330165 -0.25875108 1094.28872108 -0.24609566 C1095.35556246 -0.2572084 1095.35556246 -0.2572084 1096.44395618 -0.26854565 C1103.92609913 -0.18874622 1110.62339678 2.38206167 1116.39505887 7.1276505 C1122.16756464 14.83472577 1123.29514263 21.55602808 1122.39505887 31.1276505 C1119.39884291 42.57386878 1108.1733238 50.86612531 1099.52005887 58.2214005 C1096.19248389 61.20643099 1093.07728281 64.40199959 1089.95755887 67.60225987 C1086.60817187 71.01080724 1083.0972811 74.1632508 1079.48343778 77.28878331 C1075.9211379 80.42547289 1072.51491008 83.72531124 1069.08255887 87.0026505 C1063.61227535 92.18835621 1058.08037567 97.17090349 1052.18802762 101.8776505 C1029.11274865 120.46696614 998.98054275 146.59503887 995.39505887 178.1276505 C994.70780227 187.11485215 995.3384556 194.05822025 999.39505887 202.1276505 C1003.4253811 210.48683735 1004.5537915 217.94161362 1001.46537137 226.80343175 C998.30342143 233.66970991 993.38302519 237.49655387 986.39505887 240.1276505 C982.92497993 241.21125304 979.72262981 241.24240319 976.09818387 241.22530675 C974.89291043 241.22208409 973.687637 241.21886144 972.44584012 241.21554112 C971.19158231 241.20716222 969.9373245 241.19878331 968.64505887 241.1901505 C967.37533231 241.18563878 966.10560575 241.18112706 964.79740262 241.17647862 C961.66324051 241.16469606 958.52917346 241.14824466 955.39505887 241.1276505 C955.41076932 241.92235753 955.42647977 242.71706456 955.44266629 243.53585362 C955.91450013 271.04157652 954.3495543 294.78790541 934.60599637 316.00655675 C917.03356705 332.86491209 896.08912917 337.30243587 872.56011796 337.25628495 C870.84132405 337.25891451 870.84132405 337.25891451 869.08780703 337.26159719 C865.25595204 337.2662416 861.42413526 337.2637957 857.59227872 337.26136327 C854.81407174 337.26268076 852.0358667 337.26549324 849.25766081 337.26822859 C843.22113952 337.27337032 837.18462626 337.27480193 831.148103 337.27377248 C822.17122 337.27224534 813.19434586 337.27641419 804.21746459 337.2816471 C787.2503291 337.29131165 770.28319664 337.29413101 753.31605873 337.29470416 C740.21195628 337.29516393 727.10785501 337.29722342 714.00375295 337.30040479 C710.23003497 337.30130235 706.45631699 337.30219216 702.68259901 337.30307966 C701.2753134 337.30341124 701.2753134 337.30341124 699.83959779 337.30374951 C673.45458056 337.30990261 647.06956374 337.31385018 620.68454576 337.31340623 C619.69002761 337.31339065 618.69550947 337.31337507 617.67085441 337.31335902 C612.63036669 337.31327591 607.58987897 337.31317687 602.54939125 337.31307431 C601.04783659 337.3130444 601.04783659 337.3130444 599.51594749 337.31301387 C597.49160845 337.31297344 595.46726941 337.31293164 593.44293037 337.31288848 C561.94918538 337.31227576 530.45545117 337.31978217 498.96170926 337.33346105 C463.56824263 337.34882742 428.17478306 337.35742694 392.78131288 337.35649782 C389.00602313 337.35642319 385.23073338 337.35637449 381.45544362 337.35634351 C380.06111389 337.35632603 380.06111389 337.35632603 378.63861589 337.35630819 C363.69158938 337.35627744 348.74457223 337.3626583 333.79754851 337.37127577 C318.77102696 337.3797598 303.74451908 337.38073632 288.71799646 337.37416645 C279.7963789 337.37047588 270.87480291 337.37228845 261.95318977 337.38210879 C255.98625775 337.38812067 250.01935575 337.38679993 244.05242508 337.37963829 C240.65766146 337.37576697 237.26304336 337.37606804 233.8682752 337.38309564 C205.36265726 337.43818485 181.16154804 335.77472022 159.39505887 315.1276505 C139.77290447 293.78425448 138.84899493 268.75008514 139.39505887 241.1276505 C138.23889066 241.15121617 138.23889066 241.15121617 137.05936551 241.17525792 C133.52550631 241.23809269 129.99176516 241.27679477 126.45755887 241.3151505 C124.63901395 241.35285558 124.63901395 241.35285558 122.78373075 241.39132237 C114.18291007 241.46124775 107.41896763 240.75866776 100.14505887 236.0026505 C94.76160003 230.37448899 91.684287 224.52021178 91.25834012 216.67061925 C91.62347071 209.87919021 94.29237166 203.81084038 97.52787137 197.916713 C101.39273781 189.9432498 100.21384971 178.84878615 97.83255887 170.5651505 C91.11705513 151.51078004 79.28103307 136.49679778 65.39505887 122.1276505 C64.25617215 120.92882237 64.25617215 120.92882237 63.09427762 119.7057755 C58.40303423 114.87287823 53.41315552 110.59624334 48.16068387 106.385463 C44.56781484 103.45230156 41.14386577 100.35530615 37.71537137 97.23311925 C35.69351703 95.39847364 33.64827365 93.59996264 31.58255887 91.8151505 C26.3583714 87.25965902 21.290338 82.5335854 16.21292996 77.81612706 C14.9719525 76.66348132 13.73004935 75.5118316 12.48734403 74.36104894 C5.66421681 68.04251499 -1.10275127 61.70480698 -7.62447238 55.072963 C-9.59133987 53.14101032 -11.62925449 51.34973381 -13.72994113 49.5651505 C-20.58389478 43.64147399 -26.95190011 37.49480046 -27.91744113 28.0807755 C-28.23884268 19.36275851 -26.86831303 14.00841709 -21.29244113 7.3776505 C-14.50385952 1.69418682 -8.74508714 -0.02613942 0 0 Z M58.39505887 49.1276505 C60.04505887 50.7776505 61.69505887 52.4276505 63.39505887 54.1276505 C64.0060745 54.76186925 64.61709012 55.396088 65.24662137 56.0495255 C69.65861341 60.59757015 74.34315855 64.61131335 79.27396512 68.58468175 C93.25816976 79.90695297 106.36118 91.84521846 117.39505887 106.1276505 C117.82286649 106.6737296 118.2506741 107.2198087 118.69144559 107.78243566 C139.01223031 133.85480007 147.8128931 158.90216924 149.39505887 192.1276505 C412.07505887 192.1276505 674.75505887 192.1276505 945.39505887 192.1276505 C945.72505887 185.5276505 946.05505887 178.9276505 946.39505887 172.1276505 C954.75588392 128.77522429 982.8439504 94.57447854 1016.62552762 67.42061925 C1023.54812754 61.68921423 1030.04274201 55.47996736 1036.39505887 49.1276505 C713.65505887 49.1276505 390.91505887 49.1276505 58.39505887 49.1276505 Z M188.39505887 241.1276505 C186.7038931 263.49236221 186.7038931 263.49236221 195.64896512 281.588588 C200.94129818 286.25341848 207.25776079 288.25103754 214.21602863 288.255301 C215.67953839 288.25982495 215.67953839 288.25982495 217.17261401 288.2644403 C218.24407084 288.26267083 219.31552768 288.26090136 220.41945291 288.25907826 C222.13434234 288.26215721 222.13434234 288.26215721 223.883876 288.26529837 C227.07166702 288.26999501 230.2594225 288.27019127 233.44721541 288.26852078 C236.90991327 288.26779073 240.3726035 288.27281014 243.83529812 288.27709579 C250.70962148 288.28468321 257.58393708 288.28686923 264.4582642 288.28742485 C272.68966332 288.28833776 280.92105523 288.29500311 289.15245126 288.30177167 C309.0487952 288.31784142 328.94513839 288.32373599 348.84148767 288.32852042 C358.2511947 288.33085532 367.66090112 288.33445784 377.07060767 288.3382158 C409.27228451 288.35105195 441.473961 288.36177126 473.67564034 288.3652184 C475.69756021 288.36544003 477.71948007 288.36566182 479.74139993 288.36588375 C481.76824166 288.36610439 483.79508338 288.36632488 485.8219251 288.3665452 C489.88821383 288.36698776 493.95450256 288.36743487 498.02079129 288.36788487 C499.02899658 288.36799427 500.03720186 288.36810366 501.07595882 288.36821636 C533.773552 288.37184771 566.47112302 288.38777036 599.16870771 288.41107524 C633.72736172 288.43566161 668.28600306 288.44939068 702.84466606 288.45058632 C706.6370711 288.45075778 710.42947612 288.45097321 714.22188115 288.45122075 C715.15569807 288.45127652 716.08951498 288.45133229 717.05162938 288.45138975 C732.09062296 288.45254121 747.12959382 288.46357132 762.16857972 288.47810781 C777.27985393 288.49246179 792.39109898 288.49571601 807.50237813 288.48766783 C816.48321826 288.48320643 825.46396436 288.48709255 834.44479217 288.50290633 C840.4425121 288.51264131 846.440166 288.51149229 852.43788529 288.50147011 C855.85610999 288.49606735 859.27415384 288.49540227 862.6923637 288.50797883 C866.37556012 288.5190074 870.05827639 288.5116278 873.74145913 288.4995873 C874.80121014 288.50718249 875.86096114 288.51477768 876.95282581 288.52260303 C885.83346916 288.45971267 893.2477413 287.00374485 899.89115262 280.807338 C910.04176941 269.47028548 906.39505887 256.44112173 906.39505887 241.1276505 C669.45505887 241.1276505 432.51505887 241.1276505 188.39505887 241.1276505 Z " fill="#000000" transform="translate(440.60494112968445,540.8723495006561)"/>
<path d="M0 0 C1.13349811 -0.00560927 2.26699622 -0.01121854 3.43484275 -0.01699778 C7.23234721 -0.03091469 11.02919965 -0.01637241 14.82669449 -0.00196791 C17.58875866 -0.00391756 20.35079824 -0.01190125 23.11285162 -0.01958537 C29.13654648 -0.0331393 35.16009652 -0.03184607 41.1837945 -0.02085119 C50.20146964 -0.00446587 59.21902752 -0.0111887 68.23670535 -0.02238176 C83.6060173 -0.04078039 98.97527632 -0.04018242 114.34459305 -0.02925825 C129.92052153 -0.01825465 145.49641516 -0.01593073 161.07234573 -0.02420759 C162.05600058 -0.02472428 163.03965542 -0.02524097 164.05311799 -0.02577332 C168.05936582 -0.02790639 172.06561362 -0.03010122 176.07186137 -0.03237442 C213.39141119 -0.05353515 250.71093765 -0.05496508 288.03049088 -0.04378462 C289.13647649 -0.04345344 290.24246211 -0.04312225 291.38196245 -0.04278104 C292.48971421 -0.04244932 293.59746598 -0.0421176 294.73878598 -0.04177583 C328.47070801 -0.03168796 362.20262039 -0.02907527 395.93454361 -0.03386641 C398.19233269 -0.03417632 400.45012178 -0.03448495 402.70791087 -0.03479229 C411.78075572 -0.03603413 420.85360057 -0.03730879 429.92644541 -0.03863134 C455.28967939 -0.04229959 480.6529134 -0.04458183 506.01614761 -0.04577589 C507.17118272 -0.04583047 508.32621784 -0.04588506 509.51625401 -0.04594129 C546.32729586 -0.04757869 583.13833435 -0.04306934 619.94937515 -0.03437757 C621.14351871 -0.03409658 622.33766226 -0.03381558 623.56799198 -0.03352607 C642.96079144 -0.02894614 662.35359081 -0.02406835 681.74639019 -0.01916538 C758.66316191 0.00026035 835.57990579 -0.00064127 912.4966774 -0.02008772 C931.87963229 -0.02497238 951.26258718 -0.02981654 970.64554214 -0.03437757 C971.83897941 -0.03465937 973.03241667 -0.03494116 974.26201869 -0.03523149 C1011.03426947 -0.04385466 1047.80651793 -0.04751362 1084.57876968 -0.04577589 C1085.7329594 -0.04572155 1086.88714911 -0.04566722 1088.07631427 -0.04561123 C1113.41124744 -0.04436138 1138.74618035 -0.04182696 1164.08111327 -0.03813388 C1173.14590552 -0.03681728 1182.21069777 -0.03556496 1191.27549002 -0.03433103 C1193.53062772 -0.03402148 1195.78576542 -0.03370656 1198.04090312 -0.03338625 C1231.76492444 -0.02860947 1265.48893488 -0.03268232 1299.21295485 -0.04278104 C1300.87193328 -0.04327781 1300.87193328 -0.04327781 1302.56442642 -0.04378462 C1303.6683768 -0.04411535 1304.77232717 -0.04444608 1305.90973058 -0.04478683 C1343.12037497 -0.05581275 1380.33099132 -0.05177546 1417.5416317 -0.03066164 C1421.53527829 -0.02845217 1425.52892491 -0.02630536 1429.52257156 -0.02420759 C1430.99276041 -0.02342635 1430.99276041 -0.02342635 1432.49265003 -0.02262933 C1448.02838908 -0.01473182 1463.56409333 -0.02024116 1479.09982924 -0.03128362 C1494.36645124 -0.04185041 1509.63301438 -0.03817673 1524.89962889 -0.01922726 C1533.85590368 -0.00853514 1542.81201728 -0.00880604 1551.76828445 -0.02515365 C1557.71307203 -0.03491391 1563.65773384 -0.03022479 1569.60250616 -0.01368624 C1572.97472207 -0.00471065 1576.34635341 -0.00416085 1579.71859616 -0.01695231 C1583.34434135 -0.02973406 1586.96921267 -0.01794229 1590.5949173 0 C1591.63005496 -0.00956297 1592.66519261 -0.01912594 1593.73169808 -0.02897869 C1602.36831492 0.05815776 1610.59577272 1.8002147 1617.23495865 7.62639666 C1622.6709416 13.75494474 1625.01684593 20.98865113 1624.60995865 29.12639666 C1623.62780813 36.59074061 1620.19681724 42.74191413 1614.29745865 47.50139666 C1607.51543296 51.43824206 1601.53246853 52.07384915 1593.80369145 52.00394398 C1592.10084235 52.01254423 1592.10084235 52.01254423 1590.36359226 52.02131822 C1586.54811921 52.03568857 1582.73328787 52.02151723 1578.91782093 52.00755453 C1576.14755216 52.00980686 1573.3773086 52.01809148 1570.60705122 52.02607986 C1564.55914907 52.04030751 1558.51138941 52.03964838 1552.46348143 52.02932329 C1543.40954655 52.01393906 1534.35573096 52.02160904 1525.30179639 52.03376992 C1509.87152478 52.05381401 1494.44130393 52.05482237 1479.01102448 52.04550982 C1463.37136612 52.03613575 1447.73174333 52.03541982 1432.09208488 52.04529428 C1430.61104851 52.04622004 1430.61104851 52.04622004 1429.1000922 52.0471645 C1425.07881973 52.04970591 1421.0575473 52.05230772 1417.03627491 52.05498652 C1376.19834858 52.08216436 1335.36044947 52.08357894 1294.52251683 52.0750285 C1288.87804428 52.07385555 1283.23357173 52.0727224 1277.58909917 52.07163024 C1276.468008 52.0714131 1275.34691684 52.07119596 1274.19185321 52.07097224 C1249.35844474 52.06634165 1224.52503931 52.06976214 1199.69163118 52.07489675 C1196.29397668 52.07559909 1192.89632218 52.07628408 1189.49866767 52.07696389 C1180.39098726 52.07878927 1171.28330686 52.08063484 1162.17562646 52.08251666 C1136.71463487 52.08774151 1111.25364316 52.09155359 1085.79265118 52.09422255 C1084.63314374 52.09434409 1083.4736363 52.09446564 1082.27899227 52.09459087 C1045.32302168 52.09835539 1008.36705426 52.09576274 971.41108418 52.08898306 C970.21216562 52.0887645 969.01324707 52.08854595 967.77799766 52.08832077 C954.40839826 52.08587551 941.0387989 52.08330561 927.66919953 52.08068538 C926.46209208 52.08044884 925.25498463 52.0802123 924.01129817 52.0799686 C919.12965037 52.07901122 914.24800257 52.07805367 909.36635477 52.07708844 C832.14293626 52.06183913 754.91955484 52.06983439 677.69614029 52.09832048 C658.23668581 52.10548488 638.77723132 52.11258741 619.31777668 52.11930227 C618.11963852 52.11971649 616.92150036 52.12013071 615.68705498 52.12055748 C578.7710561 52.13323772 541.85506032 52.13974929 504.93905926 52.139709 C503.78038617 52.13970819 502.62171308 52.13970739 501.42792868 52.13970657 C475.99476937 52.13962238 450.56161034 52.13798288 425.12845122 52.13492817 C416.02852108 52.13384423 406.92859092 52.13285295 397.82866076 52.13189731 C395.56476779 52.13165723 393.30087482 52.13141084 391.03698184 52.1311581 C354.93735828 52.12716154 318.83775575 52.13715707 282.73813638 52.15386235 C245.37934021 52.17101353 208.02058567 52.16958385 170.66179187 52.14695633 C166.65260578 52.14459972 162.64341965 52.14232283 158.63423347 52.14010859 C157.65029034 52.13955788 156.6663472 52.13900717 155.6525876 52.13843977 C140.053375 52.13015971 124.45421832 52.13866089 108.85501304 52.15408679 C93.52770541 52.16889064 78.20048748 52.16591876 62.87318762 52.14385239 C53.88008845 52.1314381 44.88724185 52.13275732 35.89415816 52.15416397 C29.92623739 52.16700849 23.95851056 52.16181589 17.99060999 52.14178062 C14.60432212 52.13092111 11.21894644 52.13062902 7.83261942 52.14698086 C4.19346438 52.16334266 0.55567065 52.14904263 -3.08342499 52.12699181 C-4.12526331 52.13906365 -5.16710164 52.1511355 -6.24051082 52.16357316 C-14.07125274 52.06580371 -20.67801856 50.09804753 -26.61565027 44.79168218 C-31.56214802 39.59080223 -33.79470928 33.74469321 -34.14004135 26.62639666 C-33.87308546 19.38521803 -31.46229331 13.06302206 -26.64004135 7.62639666 C-19.04422641 0.96073004 -9.73453748 -0.08993111 0 0 Z " fill="#000000" transform="translate(204.70254135131836,1103.4986033439636)"/>
<path d="M0 0 C1.13117693 -0.00433118 2.26235387 -0.00866236 3.42780889 -0.01312479 C7.23539348 -0.02402008 11.042618 -0.01347818 14.85019982 -0.00311857 C17.61247614 -0.00488323 20.37473811 -0.01117186 23.13700789 -0.01723954 C29.17048205 -0.02808068 35.20387619 -0.027742 41.23735414 -0.02016651 C50.2697184 -0.00887989 59.30201491 -0.01486688 68.33437843 -0.0242305 C83.72752885 -0.03967643 99.12065103 -0.04083259 114.51380646 -0.03425127 C130.11679106 -0.02762824 145.71975545 -0.02749261 161.32273972 -0.03529841 C162.80007342 -0.0360304 162.80007342 -0.0360304 164.30725224 -0.03677719 C168.31844564 -0.03878533 172.32963901 -0.04083843 176.34083235 -0.04294893 C217.08093664 -0.06436191 257.821026 -0.06640123 298.5611345 -0.06089189 C304.19253252 -0.0601362 309.82393055 -0.05940858 315.45532858 -0.05870992 C316.57381853 -0.05857083 317.69230847 -0.05843174 318.84469205 -0.05828843 C343.61865779 -0.05533768 368.39262172 -0.0583474 393.16658713 -0.06260621 C396.55594782 -0.06318837 399.94530852 -0.06375721 403.33466921 -0.06432184 C412.42009315 -0.06583675 421.50551708 -0.06736366 430.59094101 -0.06891485 C494.02586664 -0.07967376 557.46079061 -0.08437111 620.89571679 -0.07644469 C622.09180324 -0.07629638 623.2878897 -0.07614807 624.5202212 -0.07599527 C637.85828327 -0.07433623 651.19634532 -0.07258665 664.53440736 -0.07080226 C665.73867058 -0.07064124 666.94293381 -0.07048021 668.18368986 -0.07031431 C677.95824575 -0.0690064 677.95824575 -0.0690064 682.79412981 -0.06835312 C759.83324534 -0.05796043 836.87233803 -0.0657295 913.91145051 -0.08935457 C933.3238186 -0.09529781 952.73618671 -0.10118929 972.14855492 -0.1067639 C973.34379205 -0.10710767 974.53902917 -0.10745144 975.77048561 -0.10780563 C1012.59720897 -0.11833017 1049.42393042 -0.1239269 1086.25065529 -0.12432104 C1087.40653177 -0.12433383 1088.56240824 -0.12434661 1089.75331128 -0.12435978 C1115.12513931 -0.12458805 1140.49696717 -0.12358215 1165.86879511 -0.12145072 C1174.94681141 -0.12069593 1184.02482772 -0.12001773 1193.10284403 -0.11937057 C1195.36128943 -0.11920788 1197.61973484 -0.11904022 1199.87818024 -0.11886756 C1235.89132834 -0.11614434 1271.90446259 -0.1247093 1307.91760772 -0.13872166 C1345.18759885 -0.15311673 1382.4575636 -0.15269534 1419.72755383 -0.13534694 C1423.72724152 -0.1335427 1427.72692924 -0.13180252 1431.72661698 -0.13011271 C1432.70822946 -0.12969221 1433.68984195 -0.12927171 1434.70120026 -0.12883846 C1450.26340541 -0.12253316 1465.82557439 -0.12965621 1481.38777444 -0.14232191 C1496.67878618 -0.15448477 1511.96974069 -0.15242928 1527.26074807 -0.13510159 C1536.2325208 -0.12536144 1545.20413122 -0.12661003 1554.17589344 -0.14393157 C1560.12969629 -0.15433757 1566.08337503 -0.15031315 1572.0371655 -0.13441508 C1575.41533717 -0.12580169 1578.79292337 -0.12564224 1582.17111967 -0.13879881 C1585.80153671 -0.15196903 1589.43108088 -0.14060787 1593.06146049 -0.12304783 C1594.62043967 -0.13756948 1594.62043967 -0.13756948 1596.21091337 -0.15238451 C1604.09409449 -0.07363432 1611.0778223 1.48301962 1617.31232941 6.52563566 C1617.92076691 7.26040128 1618.52920441 7.99516691 1619.15607941 8.75219816 C1619.78514191 9.48180753 1620.41420441 10.21141691 1621.06232941 10.96313566 C1625.39783009 17.53014405 1625.51508531 24.7624688 1624.65607941 32.37719816 C1622.58916069 39.12236594 1618.80284909 44.77004447 1612.65607941 48.37719816 C1606.04390208 51.37922052 1600.52218477 51.80310826 1593.31215882 51.75439632 C1591.61539342 51.76089309 1591.61539342 51.76089309 1589.88434993 51.76752111 C1586.07676535 51.7784164 1582.26954082 51.7678745 1578.461959 51.75751489 C1575.69968268 51.75927955 1572.93742071 51.76556818 1570.17515093 51.77163586 C1564.14167677 51.782477 1558.10828263 51.78213832 1552.07480468 51.77456283 C1543.04244042 51.76327621 1534.01014391 51.7692632 1524.9777804 51.77862682 C1509.58462997 51.79407275 1494.1915078 51.79522891 1478.79835236 51.78864759 C1463.19536777 51.78202456 1447.59240338 51.78188893 1431.9894191 51.78969473 C1430.51208541 51.79042672 1430.51208541 51.79042672 1429.00490659 51.79117351 C1424.99371319 51.79318165 1420.98251981 51.79523475 1416.97132647 51.79734525 C1376.23122218 51.81875823 1335.49113283 51.82079755 1294.75102432 51.81528821 C1289.1196263 51.81453252 1283.48822827 51.8138049 1277.85683024 51.81310624 C1276.73834029 51.81296715 1275.61985035 51.81282806 1274.46746677 51.81268475 C1249.69350104 51.809734 1224.9195371 51.81274372 1200.1455717 51.81700253 C1196.756211 51.81758468 1193.36685031 51.81815353 1189.97748961 51.81871816 C1180.89206567 51.82023307 1171.80664174 51.82175998 1162.72121781 51.82331117 C1099.28629218 51.83407008 1035.85136821 51.83876743 972.41644204 51.830841 C971.22035558 51.8306927 970.02426912 51.83054439 968.79193762 51.83039159 C955.45387556 51.82873255 942.11581351 51.82698297 928.77775146 51.82519858 C927.57348824 51.82503756 926.36922502 51.82487653 925.12846897 51.82471063 C915.35391307 51.82340272 915.35391307 51.82340272 910.51802901 51.82274944 C833.47891348 51.81235675 756.43982079 51.82012582 679.40070832 51.84375089 C659.98834022 51.84969412 640.57597211 51.85558561 621.1636039 51.86116022 C619.96836678 51.86150399 618.77312965 51.86184776 617.54167322 51.86220195 C580.71494985 51.87272649 543.8882284 51.87832321 507.06150353 51.87871736 C505.90562705 51.87873015 504.74975058 51.87874293 503.55884754 51.8787561 C478.18701951 51.87898437 452.81519165 51.87797847 427.44336372 51.87584704 C418.36534741 51.87509225 409.2873311 51.87441405 400.20931479 51.87376689 C397.95086939 51.8736042 395.69242398 51.87343654 393.43397858 51.87326388 C357.42083048 51.87054066 321.40769623 51.87910562 285.39455111 51.89311798 C248.12455997 51.90751305 210.85459522 51.90709166 173.58460499 51.88974326 C169.5849173 51.88793902 165.58522959 51.88619884 161.58554184 51.88450903 C160.60392936 51.88408853 159.62231688 51.88366803 158.61095856 51.88323478 C143.04875342 51.87692948 127.48658443 51.88405253 111.92438439 51.89671823 C96.63337264 51.90888109 81.34241813 51.9068256 66.05141075 51.88949791 C57.07963802 51.87975776 48.1080276 51.88100634 39.13626539 51.89832789 C33.18246254 51.90873389 27.22878379 51.90470947 21.27499332 51.8888114 C17.89682165 51.88019801 14.51923546 51.88003856 11.14103916 51.89319513 C7.51062211 51.90636534 3.88107794 51.89500419 0.25069833 51.87744415 C-1.30828084 51.8919658 -1.30828084 51.8919658 -2.89875454 51.90678083 C-10.60305129 51.82981763 -17.58394647 50.342381 -23.74626434 45.48266691 C-30.45450769 37.10163004 -32.48043335 30.14141103 -31.34392059 19.37719816 C-29.64689805 12.29026126 -25.47123518 7.24181161 -19.34392059 3.37719816 C-12.73910715 0.3618856 -7.20684402 -0.04869044 0 0 Z " fill="#000000" transform="translate(203.34392058849335,1296.6228018403053)"/>
<path d="M0 0 C2.75 2.375 2.75 2.375 5 5 C6.0828125 6.2065625 6.0828125 6.2065625 7.1875 7.4375 C11.28123061 13.22518811 11.71908495 19.12230042 11 26 C8.83056676 33.98302682 4.21157391 40.64788709 -0.42419434 47.38064575 C-2.46579508 50.34638371 -4.47629701 53.3331625 -6.4921875 56.31640625 C-6.88700317 56.89871506 -7.28181885 57.48102386 -7.68859863 58.08097839 C-12.32710064 64.93256335 -16.69263877 71.93763347 -21 79 C-21.57878906 79.92296875 -22.15757812 80.8459375 -22.75390625 81.796875 C-33.79692705 99.62069805 -37.95757541 118.39493271 -34.37890625 139.2578125 C-31.09174145 153.02007581 -24.390851 165.48372285 -15 176 C-14.37480469 176.75539062 -13.74960937 177.51078125 -13.10546875 178.2890625 C-8.83916917 183.34606118 -4.17535383 187.49523311 0.99609375 191.609375 C31.56138745 215.93442018 54.14658111 247.39225994 59 287 C61.55072386 324.64361095 50.32139653 354.27463164 29.421875 384.9296875 C26.79255233 388.79494926 24.23568982 392.70374994 21.703125 396.6328125 C20.94866927 397.80014325 20.19419328 398.96746091 19.43969727 400.13476562 C17.97067092 402.40841785 16.50888244 404.68622669 15.05053711 406.96679688 C2.91497252 425.71044044 2.91497252 425.71044044 -6 428 C-12.96977124 428.78257081 -20.07687733 429.13512897 -26.25390625 425.40234375 C-32.14498545 420.67102958 -36.48245771 415.4617593 -37.37109375 407.80078125 C-37.53045179 399.4297972 -36.55721598 394.00154091 -32 387 C-31.3296875 385.96359375 -30.659375 384.9271875 -29.96875 383.859375 C-28.33979125 381.37916975 -26.68370485 378.91888074 -25.015625 376.46484375 C-18.8684169 367.404593 -12.9462964 358.1927375 -7 349 C-6.54753906 348.30503418 -6.09507812 347.61006836 -5.62890625 346.89404297 C-0.86167046 339.54976455 3.08130475 332.26963654 6 324 C6.3196875 323.13890625 6.639375 322.2778125 6.96875 321.390625 C12.935863 302.273763 9.13715377 282.20949106 0.26879883 264.82958984 C-7.24095423 250.80068114 -18.04270867 239.66289469 -30.53515625 229.953125 C-34.88055485 226.50986145 -38.94710284 222.77973952 -43 219 C-43.80179688 218.26394531 -44.60359375 217.52789062 -45.4296875 216.76953125 C-62.26773841 200.71151785 -75.14682239 179.56008219 -81 157 C-81.19174805 156.29182129 -81.38349609 155.58364258 -81.58105469 154.85400391 C-87.19578933 133.54457463 -86.76430782 111.21592194 -81 90 C-80.82871582 89.34177246 -80.65743164 88.68354492 -80.48095703 88.00537109 C-74.97502405 67.4255582 -62.24972184 49.78901867 -50.54512024 32.3168335 C-47.97294459 28.47433626 -45.44314476 24.60770844 -42.94140625 20.71875 C-42.32362305 19.76661621 -41.70583984 18.81448242 -41.06933594 17.83349609 C-39.94303709 16.09709261 -38.82446599 14.35563752 -37.71582031 12.60791016 C-33.63683156 6.38337849 -28.89656485 0.99157759 -22.1875 -2.4375 C-14.55405762 -3.78457807 -6.8872736 -3.94681661 0 0 Z " fill="#000000" transform="translate(1001,18)"/>
<path d="M0 0 C5.76529366 4.90743814 9.17006251 9.48626417 10.10546875 17.140625 C10.93535798 31.01420792 2.06122464 41.40784636 -5.41015625 52.3203125 C-11.08147841 60.70126636 -14.27792264 67.20766601 -13.21484375 77.51953125 C-10.51838797 87.37946292 -3.12828337 93.74761688 4.16015625 100.39453125 C21.42310316 116.15014138 32.32906571 133.82224435 34.00390625 157.62890625 C34.65804051 179.97849331 25.55409315 197.37665582 13.34667969 215.20898438 C11.95164708 217.27317896 10.61147052 219.35912736 9.29296875 221.47265625 C4.45752583 229.10523638 -0.45583482 234.41615845 -9.2734375 237.16015625 C-15.38496035 238.2914643 -21.98957491 237.23629739 -27.453125 234.328125 C-33.24610513 230.32431388 -36.99221984 225.18740299 -39.21484375 218.51953125 C-40.99536325 204.11760769 -33.32741703 194.29389759 -25.53027344 183.01318359 C-19.79336707 174.67112097 -14.77987626 166.71540325 -16.62109375 156.19921875 C-19.99777957 144.66220887 -27.77140276 138.04101235 -36.73486328 130.74169922 C-51.04099169 118.92769743 -60.75653294 100.88622123 -63.21484375 82.51953125 C-65.57877186 57.08014734 -56.64689984 37.73016273 -42.41992188 17.28027344 C-41.24937253 15.56998132 -40.12375407 13.83862525 -39.01171875 12.08984375 C-33.74295054 3.86493459 -29.69479929 -1.48007437 -19.9296875 -4.03515625 C-12.60194797 -5.2371164 -6.09619065 -4.34369231 0 0 Z " fill="#000000" transform="translate(835.21484375,113.48046875)"/>
<path d="M0 0 C5.68777398 5.75630138 8.27994299 10.411123 8.4375 18.6875 C8.29835126 25.74746758 6.81706355 30.14263522 3 36 C2.62987793 36.5686377 2.25975586 37.13727539 1.87841797 37.72314453 C-0.23871649 40.95997415 -2.38882085 44.17326194 -4.55859375 47.375 C-13.36486797 60.22971871 -13.36486797 60.22971871 -14.59765625 75.3828125 C-12.10260196 86.30886722 -5.14058774 92.53471726 3.3125 99.1875 C18.89943903 111.84921897 29.37801978 129.99526202 32 150 C33.63817658 174.48179668 25.72576591 192.17258554 12.9375 212.5 C12.36016113 213.41982666 11.78282227 214.33965332 11.18798828 215.28735352 C5.37329521 224.33563546 -0.14161822 232.62721917 -10.96875 235.52734375 C-18.1565008 236.79660927 -24.54162088 235.14399499 -30.75 231.4375 C-36.40114431 227.41649347 -39.62805344 221.76369654 -41 215 C-41.98824969 202.3998164 -34.56560455 193.04949928 -28 183 C-18.97479504 169.67752086 -18.97479504 169.67752086 -18 154 C-21.48647899 142.7461754 -29.44158556 136.33371925 -38.23828125 129.1796875 C-52.65020196 117.22270318 -63.09493857 97.83522142 -64.87109375 79.12890625 C-64.91363281 78.42636719 -64.95617188 77.72382813 -65 77 C-65.05285156 76.14277344 -65.10570312 75.28554687 -65.16015625 74.40234375 C-65.99473916 47.44168722 -51.22974708 21.94503674 -34 2 C-24.70349484 -7.27260669 -10.28862309 -8.85300126 0 0 Z " fill="#000000" transform="translate(1172,115)"/>
</svg>
